<svg width="2685" height="1129" viewBox="0 0 2685 1129" fill="none" xmlns="http://www.w3.org/2000/svg">
<path d="M30.977 574.118C31.2997 548.287 40.6573 520.019 59.0499 489.315C77.7652 458.61 102.45 432.048 133.104 409.629C164.082 387.21 194.736 376 225.068 376C243.46 376 259.755 379.655 273.953 386.966C288.474 393.789 299.606 402.318 307.35 412.553C315.417 422.788 322.032 434.485 327.195 447.644C335.262 469.089 339.295 490.777 339.295 512.709C339.295 549.262 323.161 590.445 290.894 636.258C258.949 681.584 215.549 727.154 160.693 772.967C152.949 779.79 149.077 784.664 149.077 787.589C149.077 789.051 154.401 789.782 165.05 789.782C176.021 789.782 190.38 792.462 208.127 797.823C226.197 803.184 244.912 813.907 264.273 829.99C283.634 846.074 299.445 866.543 311.706 891.399C312.674 892.861 313.158 894.324 313.158 895.786C313.158 897.248 312.513 897.979 311.222 897.979C310.254 897.979 301.058 895.055 283.634 889.206C266.532 883.845 243.138 878.24 213.451 872.392C183.765 867.031 155.692 864.35 129.232 864.35C103.095 864.35 73.0864 870.198 39.2053 881.895C38.2373 882.383 36.7852 882.627 34.8491 882.627C11.6164 859.233 0 840.956 0 827.797C0 812.688 15.9725 802.697 47.9176 797.823C51.467 797.823 66.7942 786.857 93.8991 764.925C121.327 742.994 151.336 716.675 183.926 685.971C216.839 654.779 246.526 619.444 272.985 579.967C299.445 540.489 312.674 506.373 312.674 477.618C312.674 453.736 296.379 441.796 263.789 441.796C252.172 441.796 237.813 444.72 220.711 450.568C203.932 456.417 188.282 463.727 173.762 472.5C159.241 481.273 142.301 495.163 122.94 514.171C103.902 532.691 85.8322 554.867 68.7303 580.698C60.018 594.344 55.6618 605.066 55.6618 612.864C55.6618 618.225 58.2432 620.906 63.4061 620.906C75.6678 620.419 95.8352 610.915 123.908 592.395C152.304 573.387 174.407 550.237 190.218 522.944C196.027 512.221 199.899 506.86 201.835 506.86C203.771 508.81 204.739 510.759 204.739 512.709C204.739 543.901 189.412 577.53 158.757 613.595C128.103 649.661 101.643 667.694 79.3786 667.694C75.5065 667.694 70.3436 665.501 63.8901 661.114C57.4366 656.241 52.1124 650.88 47.9176 645.031C43.7228 639.183 39.8506 630.166 36.3012 617.982C32.7517 605.31 30.977 590.689 30.977 574.118ZM521.917 810.982C521.917 815.369 523.691 817.562 527.241 817.562C531.113 817.562 537.889 814.15 547.57 807.327C557.573 800.504 569.35 790.025 582.903 775.891C596.778 761.758 615.009 741.775 637.596 715.944C660.507 689.626 680.513 667.45 697.615 649.418C700.519 652.829 701.971 656.972 701.971 661.846C701.971 666.719 700.519 671.106 697.615 675.005C687.289 690.113 674.22 709.121 658.409 732.028C642.598 754.447 618.397 784.664 585.807 822.679C553.539 860.695 530.952 879.702 518.045 879.702C493.198 879.702 480.775 859.72 480.775 819.755C480.775 804.647 484.647 788.807 492.392 772.236L513.204 729.103C515.14 724.717 516.109 722.28 516.109 721.793C516.109 720.818 515.14 721.549 513.204 723.986C457.059 794.655 421.241 836.082 405.753 848.267C403.171 850.704 399.945 851.922 396.073 851.922C385.424 851.922 380.1 844.611 380.1 829.99C380.1 825.116 380.907 820.73 382.52 816.831C401.235 775.891 415.594 748.355 425.597 734.221L433.826 721.793C434.471 720.818 434.794 719.843 434.794 718.868C434.794 717.894 434.471 717.406 433.826 717.406C433.18 717.406 432.212 718.381 430.922 720.331L379.132 781.74C349.123 817.318 332.666 836.326 329.762 838.763C327.181 840.712 324.761 841.687 322.502 841.687C320.243 841.687 316.694 839.738 311.854 835.839C307.014 831.452 304.594 826.578 304.594 821.217C304.594 819.755 305.078 817.806 306.046 815.369C337.668 762.732 360.739 719.356 375.26 685.24C381.391 670.618 386.715 657.703 391.232 646.493C396.073 634.796 399.783 626.511 402.365 621.637C405.269 616.763 408.334 614.326 411.561 614.326C414.788 614.326 418.337 617.251 422.209 623.099C426.404 628.46 428.502 634.065 428.502 639.914C428.502 645.762 427.211 651.854 424.629 658.19C413.658 687.92 405.107 707.171 398.977 715.944C398.009 717.406 397.525 718.869 397.525 720.331C397.525 721.305 397.847 721.793 398.493 721.793L399.945 721.062L464.803 653.073C481.259 636.015 491.101 627.486 494.328 627.486C497.555 627.486 500.943 629.191 504.492 632.603C508.364 635.527 510.3 638.939 510.3 642.838C510.3 646.737 509.494 650.636 507.88 654.535L476.419 719.6C472.224 727.398 470.127 731.784 470.127 732.759C470.127 733.733 470.288 734.221 470.611 734.221L473.031 732.028C513.366 690.601 540.632 661.846 554.83 645.762C569.35 629.679 578.063 619.444 580.967 615.057C585.484 610.184 589.195 607.747 592.099 607.747C595.326 607.747 597.423 608.234 598.391 609.209L609.04 621.637C612.266 624.074 613.88 627.242 613.88 631.141C613.88 635.04 613.234 638.208 611.944 640.645C592.906 671.837 577.579 696.693 565.962 715.213C554.668 733.733 546.44 747.38 541.277 756.153C532.888 771.261 527.725 783.446 525.789 792.706C523.207 799.529 521.917 805.621 521.917 810.982ZM745.813 791.244C793.892 752.254 846.811 700.348 904.57 635.527C907.474 638.939 908.926 643.082 908.926 647.955C908.926 652.829 907.313 657.459 904.086 661.846C900.859 666.232 896.18 672.568 890.049 680.853C884.241 689.139 872.948 704.004 856.168 725.448C839.389 746.893 823.739 766.388 809.219 783.933C771.143 830.234 743.07 857.527 725 865.812C719.192 868.249 712.9 869.468 706.123 869.468C695.152 869.468 689.667 856.552 689.667 830.721C689.667 825.36 691.119 817.318 694.023 806.596C697.25 795.874 699.024 789.782 699.347 788.319C699.992 786.37 700.477 784.908 700.799 783.933C701.122 782.958 701.445 782.227 701.767 781.74C702.09 780.765 702.251 779.79 702.251 778.816C702.251 777.841 701.283 777.354 699.347 777.354C697.734 777.354 692.41 783.933 683.375 797.092C674.34 809.764 666.757 819.999 660.626 827.797C654.818 835.595 648.041 842.906 640.297 849.729C632.876 856.552 626.745 859.964 621.905 859.964C608.997 859.964 602.544 850.947 602.544 832.914C602.544 822.192 604.964 809.033 609.804 793.437C621.098 757.371 638.038 721.305 660.626 685.24C683.213 649.174 699.347 630.897 709.027 630.41C712.577 630.41 715.804 632.359 718.708 636.258C721.612 640.157 723.064 644.544 723.064 649.418C723.064 654.291 719.837 661.602 713.384 671.349C706.93 681.097 698.702 693.769 688.699 709.365C679.018 724.473 672.081 737.145 667.886 747.38C664.014 757.615 662.078 764.438 662.078 767.85C662.078 771.261 663.369 772.967 665.95 772.967C668.531 772.967 673.21 769.799 679.986 763.463C698.379 744.456 719.353 721.062 742.909 693.281C766.787 665.501 782.114 645.275 788.89 632.603C790.503 623.83 795.344 619.444 803.411 619.444C818.899 619.444 826.643 623.587 826.643 631.872C826.643 635.284 819.06 647.955 803.895 669.887C758.397 735.683 735.648 776.379 735.648 791.975C735.648 794.412 736.294 795.63 737.584 795.63C739.198 795.63 741.941 794.168 745.813 791.244ZM1017.01 630.41C1016.68 647.955 1009.42 665.257 995.225 682.315C981.349 699.374 964.409 707.902 944.403 707.902C936.013 707.902 931.819 704.247 931.819 696.937C931.819 694.012 933.271 691.819 936.175 690.357C955.535 673.299 967.797 659.409 972.96 648.687C973.605 646.737 973.928 644.544 973.928 642.107C973.928 639.67 973.121 638.452 971.508 638.452C944.08 644.3 917.943 666.963 893.097 706.44C868.251 745.918 855.828 776.622 855.828 798.554C855.828 808.789 858.409 813.907 863.572 813.907C887.45 813.907 912.619 803.428 939.079 782.471C965.538 761.514 1004.9 723.011 1057.18 666.963C1060.73 663.064 1066.05 657.216 1073.15 649.418C1080.57 641.62 1084.93 636.989 1086.22 635.527C1089.12 638.939 1090.58 643.082 1090.58 647.955C1090.58 652.829 1089.12 657.215 1086.22 661.114C1070.09 685.483 1049.11 712.776 1023.3 742.993C997.806 773.211 968.442 801.966 935.207 829.259C901.971 856.065 874.866 869.468 853.892 869.468C829.046 869.468 816.623 849.485 816.623 809.52C816.623 781.74 822.754 754.691 835.015 728.372C847.277 701.567 862.282 679.147 880.029 661.114C897.776 643.082 916.33 628.704 935.691 617.982C955.051 606.772 970.54 601.167 982.156 601.167C994.095 601.167 1002.65 603.604 1007.81 608.478C1012.97 613.352 1015.71 618.225 1016.04 623.099L1017.01 630.41ZM1116.16 791.975C1116.16 794.412 1116.81 795.63 1118.1 795.63C1119.39 795.63 1121.97 794.168 1125.84 791.244C1173.92 752.254 1226.84 700.348 1284.6 635.527C1287.5 638.939 1288.95 643.082 1288.95 647.955C1288.95 652.829 1287.34 657.459 1284.11 661.846C1280.89 666.232 1276.21 672.568 1270.08 680.853C1264.27 689.139 1252.98 704.004 1236.2 725.448C1219.42 746.893 1203.77 766.388 1189.25 783.933C1151.17 830.234 1123.1 857.527 1105.03 865.812C1099.22 868.249 1092.93 869.468 1086.15 869.468C1075.18 869.468 1069.69 856.552 1069.69 830.721C1069.69 821.948 1073.24 807.571 1080.34 787.589C1087.44 767.119 1090.99 752.254 1090.99 742.993C1090.99 742.019 1090.51 741.532 1089.54 741.532C1088.57 741.532 1086.15 743.725 1082.28 748.111C1037.43 800.748 1010.16 837.301 1000.48 857.77C998.544 862.157 995.963 864.35 992.736 864.35C985.637 864.35 981.12 859.233 979.184 848.998C979.184 834.376 992.736 797.336 1019.84 737.876C1047.27 678.416 1079.38 616.032 1116.16 550.724C1152.95 484.928 1182.95 438.628 1206.19 411.822C1212.96 402.075 1228.77 397.201 1253.62 397.201C1257.49 398.663 1259.43 401.1 1259.43 404.511C1259.43 407.923 1258.3 411.335 1256.04 414.746C1163.11 550.237 1104.06 644.056 1078.89 696.206C1077.6 698.155 1075.83 701.81 1073.57 707.171C1071.63 712.045 1070.66 715.213 1070.66 716.675L1071.15 717.406C1072.44 717.406 1082.6 706.684 1101.64 685.24C1120.68 663.308 1134.88 647.712 1144.23 638.452C1147.14 634.065 1153.27 631.872 1162.63 631.872C1170.69 633.334 1174.73 637.233 1174.73 643.569C1174.73 645.519 1174.4 647.224 1173.76 648.687C1149.88 699.861 1135.52 732.515 1130.68 746.649C1121 769.555 1116.16 784.664 1116.16 791.975ZM1216.91 574.118C1217.23 548.287 1226.59 520.019 1244.98 489.315C1263.7 458.61 1288.38 432.048 1319.04 409.629C1350.02 387.21 1380.67 376 1411 376C1429.39 376 1445.69 379.655 1459.89 386.966C1474.41 393.789 1485.54 402.318 1493.28 412.553C1501.35 422.788 1507.97 434.485 1513.13 447.644C1521.2 469.089 1525.23 490.777 1525.23 512.709C1525.23 549.262 1509.1 590.445 1476.83 636.258C1444.88 681.584 1401.48 727.154 1346.63 772.967C1338.88 779.79 1335.01 784.664 1335.01 787.589C1335.01 789.051 1340.33 789.782 1350.98 789.782C1361.95 789.782 1376.31 792.462 1394.06 797.823C1412.13 803.184 1430.85 813.907 1450.21 829.99C1469.57 846.074 1485.38 866.543 1497.64 891.399C1498.61 892.861 1499.09 894.324 1499.09 895.786C1499.09 897.248 1498.45 897.979 1497.16 897.979C1496.19 897.979 1486.99 895.055 1469.57 889.206C1452.47 883.845 1429.07 878.24 1399.38 872.392C1369.7 867.031 1341.63 864.35 1315.17 864.35C1289.03 864.35 1259.02 870.198 1225.14 881.895C1224.17 882.383 1222.72 882.627 1220.78 882.627C1197.55 859.233 1185.93 840.956 1185.93 827.797C1185.93 812.688 1201.91 802.697 1233.85 797.823C1237.4 797.823 1252.73 786.857 1279.83 764.925C1307.26 742.994 1337.27 716.675 1369.86 685.971C1402.77 654.779 1432.46 619.444 1458.92 579.967C1485.38 540.489 1498.61 506.373 1498.61 477.618C1498.61 453.736 1482.31 441.796 1449.72 441.796C1438.11 441.796 1423.75 444.72 1406.65 450.568C1389.87 456.417 1374.22 463.727 1359.7 472.5C1345.18 481.273 1328.23 495.163 1308.87 514.171C1289.84 532.691 1271.77 554.867 1254.66 580.698C1245.95 594.344 1241.6 605.066 1241.6 612.864C1241.6 618.225 1244.18 620.906 1249.34 620.906C1261.6 620.419 1281.77 610.915 1309.84 592.395C1338.24 573.387 1360.34 550.237 1376.15 522.944C1381.96 512.221 1385.83 506.86 1387.77 506.86C1389.7 508.81 1390.67 510.759 1390.67 512.709C1390.67 543.901 1375.35 577.53 1344.69 613.595C1314.04 649.661 1287.58 667.694 1265.31 667.694C1261.44 667.694 1256.28 665.501 1249.82 661.114C1243.37 656.241 1238.05 650.88 1233.85 645.031C1229.66 639.183 1225.78 630.166 1222.24 617.982C1218.69 605.31 1216.91 590.689 1216.91 574.118ZM1550.06 802.941C1561.35 802.941 1571.68 792.706 1581.04 772.236C1590.72 751.279 1597.49 730.322 1601.37 709.365C1605.24 687.92 1607.18 670.862 1607.18 658.19C1607.18 654.779 1605.4 653.073 1601.85 653.073C1598.62 653.073 1594.75 655.753 1590.23 661.114L1526.83 734.952C1522.31 738.851 1517.15 740.8 1511.34 740.8C1505.53 740.8 1502.63 737.632 1502.63 731.297C1502.63 726.91 1502.95 723.986 1503.6 722.524C1504.56 721.062 1506.98 718.625 1510.86 715.213C1534.73 690.357 1567.32 649.905 1608.63 593.857C1613.47 584.109 1617.82 579.235 1621.7 579.235C1625.57 579.235 1632.02 581.185 1641.06 585.084C1650.09 588.496 1654.61 592.638 1654.61 597.512C1654.61 626.755 1652.83 653.317 1649.28 677.198C1645.73 701.079 1642.02 719.356 1638.15 732.028C1634.6 744.212 1632.83 750.792 1632.83 751.766C1632.83 752.741 1633.15 753.228 1633.8 753.228C1634.44 753.228 1635.73 752.497 1637.67 751.035C1661.87 732.515 1692.68 702.298 1730.12 660.383L1741.72 647.224C1744.63 650.636 1746.09 654.779 1746.09 659.652C1746.09 664.526 1744.63 668.913 1741.72 672.812C1741.09 672.812 1732.69 683.046 1716.56 703.516C1700.75 723.986 1683 746.405 1663.32 770.774C1643.96 794.655 1623.15 816.587 1600.88 836.57C1578.62 856.552 1561.35 866.543 1549.09 866.543C1518.76 866.543 1503.6 839.007 1503.6 783.933C1503.6 779.547 1504.73 775.648 1506.98 772.236C1509.57 768.337 1512.79 766.388 1516.66 766.388C1516.66 768.824 1517.47 772.724 1519.08 778.085C1521.02 782.958 1522.96 787.101 1524.89 790.513C1530.7 798.798 1539.09 802.941 1550.06 802.941ZM1747.37 825.604L1751.25 778.816C1751.25 777.354 1750.93 776.622 1750.28 776.622C1749.95 776.622 1749.14 777.597 1747.86 779.547C1743.67 786.37 1738.34 794.899 1731.88 805.134C1725.43 814.881 1714.3 828.284 1698.49 845.342C1683 861.913 1670.41 870.199 1660.73 870.199C1659.12 869.711 1657.18 868.736 1654.93 867.274C1652.34 866.3 1649.12 862.401 1645.25 855.577C1641.37 848.754 1639.44 839.007 1639.44 826.335C1639.44 813.663 1645.89 794.412 1658.8 768.581C1671.38 742.263 1686.55 716.675 1704.3 691.819C1722.04 666.476 1741.72 644.544 1763.35 626.023C1785.28 607.503 1804.33 598.243 1820.46 598.243C1826.58 598.731 1831.42 605.31 1834.98 617.982C1838.21 613.108 1841.1 610.671 1843.7 610.671C1846.28 610.671 1849.35 613.595 1852.89 619.444C1854.82 619.931 1856.76 621.637 1858.69 624.561C1860.64 626.998 1861.6 630.654 1861.6 635.527C1861.6 640.401 1859.34 645.762 1854.82 651.611C1848.05 664.282 1840.14 678.66 1831.11 694.743C1822.08 710.827 1815.62 722.524 1811.75 729.834C1807.87 736.658 1803.84 744.456 1799.65 753.228C1792.54 768.337 1788.67 780.521 1788.04 789.782C1820.94 765.9 1872.74 714.482 1943.4 635.527C1946.31 638.939 1947.76 643.082 1947.76 647.955C1947.76 652.829 1946.46 656.972 1943.89 660.383C1941.31 663.795 1938.08 667.938 1934.21 672.812C1930.65 677.685 1923.39 687.189 1912.43 701.323C1901.45 715.457 1890.8 729.103 1880.47 742.262C1870.48 754.934 1858.85 769.312 1845.63 785.395C1832.72 800.991 1821.11 814.394 1810.78 825.604C1785.93 852.409 1770.45 865.812 1764.31 865.812C1758.19 865.812 1753.82 862.888 1751.25 857.039C1748.67 851.191 1747.37 840.712 1747.37 825.604ZM1698 794.899C1701.88 794.899 1713.65 782.958 1733.34 759.077C1753.35 735.196 1772.22 711.314 1789.97 687.433L1817.08 651.611C1818.36 649.661 1819.01 648.443 1819.01 647.955C1819.01 646.981 1818.52 646.493 1817.55 646.493C1805.29 646.493 1789.32 657.216 1769.64 678.66C1749.95 699.617 1732.85 722.036 1718.33 745.918C1704.13 769.312 1697.04 785.151 1697.04 793.437C1697.04 794.412 1697.36 794.899 1698 794.899ZM2033.25 620.175C2048.42 622.612 2056 627.729 2056 635.527C2056 638.939 2054.72 642.838 2052.14 647.224C2006.63 723.742 1954.36 821.217 1895.31 939.649C1878.21 974.741 1860.78 1007.88 1843.03 1039.07C1825.29 1070.28 1808.68 1092.92 1793.19 1107.07C1777.69 1121.69 1761.56 1129 1744.79 1129C1736.39 1129 1728.97 1125.58 1722.52 1118.75C1716.06 1111.94 1712.84 1102.67 1712.84 1090.99C1712.84 1063.68 1721.55 1035.42 1738.97 1006.18C1756.4 976.934 1775.92 953.052 1797.54 934.532C1819.17 916.499 1837.88 906.021 1853.7 903.096L1863.85 905.29C1867.08 904.802 1878.86 886.038 1899.19 848.998C1919.84 811.957 1930.16 792.462 1930.16 790.513C1930.49 788.076 1930.33 786.857 1929.68 786.857L1920.48 797.823C1896.27 831.94 1877.4 848.998 1863.85 848.998C1855.13 848.998 1850.78 839.738 1850.78 821.217C1850.78 796.361 1864.18 757.127 1890.96 703.516C1917.74 649.905 1937.42 623.099 1950.01 623.099C1950.97 623.099 1952.11 623.587 1953.39 624.561C1962.42 627.973 1966.95 632.847 1966.95 639.183C1966.95 641.62 1966.46 643.569 1965.49 645.031C1964.84 646.006 1961.62 650.636 1955.81 658.921C1950.32 667.207 1944.85 675.979 1939.36 685.24C1933.87 694.012 1928.07 703.76 1921.93 714.482C1908.06 738.851 1901.11 757.127 1901.11 769.312C1901.11 772.236 1902.1 773.698 1904.03 773.698C1906.29 773.698 1910.32 771.018 1916.13 765.657C1961.95 718.381 1997.76 673.299 2023.57 630.41C2025.84 623.587 2029.06 620.175 2033.25 620.175ZM1738.01 1096.82C1749.3 1091.47 1764.47 1074.65 1783.51 1046.38C1802.54 1018.6 1818.83 992.286 1832.39 967.43L1852.71 929.415C1854.66 925.516 1855.62 923.079 1855.62 922.104C1855.62 921.129 1855.13 920.642 1854.17 920.642C1843.84 920.642 1829.16 932.583 1810.13 956.464C1790.77 980.345 1773.66 1006.42 1758.82 1034.68C1743.65 1062.97 1736.08 1082.94 1736.08 1094.65C1736.08 1096.1 1736.72 1096.82 1738.01 1096.82Z" fill="white"/>
<path d="M2198.95 168.375V449C2198.95 541.957 2275.79 617.375 2370.5 617.375C2465.21 617.375 2542.05 541.957 2542.05 449H2399.09C2383.37 449 2370.5 436.372 2370.5 420.938C2370.5 405.503 2383.37 392.875 2399.09 392.875H2542.05V336.75H2399.09C2383.37 336.75 2370.5 324.122 2370.5 308.688C2370.5 293.253 2383.37 280.625 2399.09 280.625H2542.05V224.5H2399.09C2383.37 224.5 2370.5 211.872 2370.5 196.438C2370.5 181.003 2383.37 168.375 2399.09 168.375H2542.05C2542.05 75.418 2465.21 0 2370.5 0C2275.79 0 2198.95 75.418 2198.95 168.375ZM2599.23 420.938V449C2599.23 573.001 2496.84 673.5 2370.5 673.5C2244.16 673.5 2141.77 573.001 2141.77 449V378.844C2141.77 355.517 2122.65 336.75 2098.89 336.75C2075.12 336.75 2056 355.517 2056 378.844V449C2056 605.273 2174.29 734.361 2327.61 754.881V813.812H2241.84C2218.07 813.812 2198.95 832.579 2198.95 855.906C2198.95 879.233 2218.07 898 2241.84 898H2370.5H2499.16C2522.93 898 2542.05 879.233 2542.05 855.906C2542.05 832.579 2522.93 813.812 2499.16 813.812H2413.39V754.881C2566.71 734.361 2685 605.273 2685 449V378.844C2685 355.517 2665.88 336.75 2642.11 336.75C2618.35 336.75 2599.23 355.517 2599.23 378.844V420.938Z" fill="white"/>
<line x1="311" y1="896" x2="2501" y2="896" stroke="white" stroke-width="4"/>
</svg>
