<svg viewBox="0 0 51 59" xmlns="http://www.w3.org/2000/svg">
<path
  className="path"
  d="M48.103 13.626V44.775 M48.103 13.626L25.088 2 M48.032 44.782L25.015 56.419 M2 13.633V44.782 M2 13.633L25.015 2.007 M2 44.782L25.017 56.419"
  stroke="#F88D30"
  strokeLinecap="round"
  strokeWidth="4"
/>
<path
  d="M20.6855 17.6694V17.001H31.1821V17.6694H30.2969C29.2972 17.6694 28.5685 17.9645 28.1108 18.5547C27.8218 18.9401 27.6772 19.8675 27.6772 21.3369V33.3149C27.6772 35.1577 27.4725 36.6512 27.063 37.7954C26.6655 38.9396 25.973 39.9393 24.9854 40.7944C23.9977 41.6375 22.8053 42.0591 21.4082 42.0591C20.276 42.0591 19.3848 41.7821 18.7344 41.228C18.084 40.6619 17.7588 40.0176 17.7588 39.2949C17.7588 38.7048 17.9093 38.2591 18.2104 37.958C18.6079 37.5846 19.0716 37.3979 19.6016 37.3979C19.987 37.3979 20.3302 37.5244 20.6313 37.7773C20.9445 38.0303 21.3359 38.7048 21.8057 39.8008C22.0827 40.4512 22.438 40.7764 22.8716 40.7764C23.1968 40.7764 23.4979 40.5776 23.7749 40.1802C24.064 39.7827 24.2085 39.0781 24.2085 38.0664V21.3369C24.2085 20.0964 24.1302 19.2773 23.9736 18.8799C23.8532 18.5788 23.6003 18.3198 23.2148 18.103C22.6969 17.814 22.1489 17.6694 21.5708 17.6694H20.6855Z"
  fill="#F88D30"
/>
</svg>