<svg width="1179" height="1720" viewBox="0 0 1179 1720" fill="none" xmlns="http://www.w3.org/2000/svg">
<path fill-rule="evenodd" clip-rule="evenodd" d="M0 984C52.4728 1225.39 255.002 1412.16 506.896 1445.87V1558.75H342.634C297.12 1558.75 260.503 1594.7 260.503 1639.38C260.503 1684.05 297.12 1720 342.634 1720H589.027H835.419C880.933 1720 917.55 1684.05 917.55 1639.38C917.55 1594.7 880.933 1558.75 835.419 1558.75H671.158V1445.87C923.052 1412.16 1125.58 1225.39 1178.05 984H1008.58C954.363 1161.04 787.055 1290 589.027 1290C390.999 1290 223.691 1161.04 169.478 984H0ZM285.686 984C335.208 1100.54 452.409 1182.5 589.027 1182.5C725.644 1182.5 842.846 1100.54 892.367 984H285.686Z" fill="black"/>
<path fill-rule="evenodd" clip-rule="evenodd" d="M267.727 736V322.5C267.727 144.453 411.631 0 589 0C766.369 0 910.273 144.453 910.273 322.5H642.545C613.095 322.5 589 346.688 589 376.25C589 405.812 613.095 430 642.545 430H910.273V537.5H642.545C613.095 537.5 589 561.688 589 591.25C589 620.812 613.095 645 642.545 645H910.273V736H267.727ZM160.636 736V725.625C160.636 680.945 124.828 645 80.3182 645C35.8085 645 0 680.945 0 725.625V736H160.636ZM1178 736V725.625C1178 680.945 1142.19 645 1097.68 645C1053.17 645 1017.36 680.945 1017.36 725.625V736H1178Z" fill="black"/>
<path fill-rule="evenodd" clip-rule="evenodd" d="M0 984C52.4728 1225.39 255.002 1412.16 506.896 1445.87V1558.75H342.634C297.12 1558.75 260.503 1594.7 260.503 1639.38C260.503 1684.05 297.12 1720 342.634 1720H589.027H835.419C880.933 1720 917.55 1684.05 917.55 1639.38C917.55 1594.7 880.933 1558.75 835.419 1558.75H671.158V1445.87C923.052 1412.16 1125.58 1225.39 1178.05 984H1008.58C954.363 1161.04 787.055 1290 589.027 1290C390.999 1290 223.691 1161.04 169.478 984H0ZM285.686 984C335.208 1100.54 452.409 1182.5 589.027 1182.5C725.644 1182.5 842.846 1100.54 892.367 984H285.686Z" fill="white"/>
<path fill-rule="evenodd" clip-rule="evenodd" d="M267.727 736V322.5C267.727 144.453 411.631 0 589 0C766.369 0 910.273 144.453 910.273 322.5H642.545C613.095 322.5 589 346.688 589 376.25C589 405.812 613.095 430 642.545 430H910.273V537.5H642.545C613.095 537.5 589 561.688 589 591.25C589 620.812 613.095 645 642.545 645H910.273V736H267.727ZM160.636 736V725.625C160.636 680.945 124.828 645 80.3182 645C35.8085 645 0 680.945 0 725.625V736H160.636ZM1178 736V725.625C1178 680.945 1142.19 645 1097.68 645C1053.17 645 1017.36 680.945 1017.36 725.625V736H1178Z" fill="white"/>
<path d="M1178 736H0V984H1178V736Z" fill="black"/>
<path d="M30.4472 831.722C30.6289 821.979 35.8994 811.318 46.2587 799.738C56.7997 788.157 70.7029 778.139 87.9683 769.683C105.416 761.228 122.681 757 139.765 757C150.124 757 159.302 758.379 167.299 761.136C175.477 763.709 181.747 766.926 186.109 770.786C190.652 774.646 194.378 779.058 197.286 784.021C201.829 792.109 204.101 800.289 204.101 808.561C204.101 822.347 195.014 837.88 176.84 855.159C158.848 872.254 134.403 889.441 103.507 906.719C99.1455 909.293 96.9645 911.131 96.9645 912.234C96.9645 912.785 99.9634 913.061 105.961 913.061C112.14 913.061 120.228 914.072 130.223 916.094C140.401 918.116 150.942 922.16 161.846 928.226C172.751 934.292 181.656 942.012 188.562 951.387C189.108 951.938 189.38 952.49 189.38 953.041C189.38 953.593 189.017 953.869 188.29 953.869C187.744 953.869 182.565 952.766 172.751 950.56C163.118 948.538 149.942 946.424 133.222 944.218C116.502 942.196 100.69 941.185 85.7874 941.185C71.0664 941.185 54.1644 943.391 35.0816 947.803C34.5364 947.986 33.7185 948.078 32.6281 948.078C19.5427 939.255 13 932.362 13 927.399C13 921.7 21.9962 917.932 39.9886 916.094C41.9877 916.094 50.6205 911.958 65.8867 903.686C81.3348 895.415 98.2367 885.488 116.593 873.908C135.13 862.144 151.851 848.817 166.753 833.928C181.656 819.038 189.108 806.171 189.108 795.326C189.108 786.319 179.93 781.815 161.574 781.815C155.031 781.815 146.943 782.918 137.311 785.124C127.861 787.33 119.046 790.087 110.868 793.396C102.689 796.705 93.148 801.943 82.2435 809.112C71.5207 816.097 61.3432 824.461 51.7109 834.203C46.8039 839.35 44.3504 843.394 44.3504 846.335C44.3504 848.357 45.8043 849.368 48.7122 849.368C55.6184 849.184 66.9772 845.6 82.7887 838.615C98.7819 831.446 111.231 822.715 120.137 812.421C123.408 808.377 125.589 806.355 126.679 806.355C127.77 807.09 128.315 807.826 128.315 808.561C128.315 820.325 119.682 833.008 102.417 846.611C85.1513 860.213 70.2485 867.015 57.7084 867.015C55.5275 867.015 52.6196 866.188 48.9848 864.533C45.35 862.695 42.3512 860.673 39.9886 858.467C37.626 856.261 35.4451 852.861 33.4459 848.265C31.4468 843.486 30.4472 837.972 30.4472 831.722ZM306.959 921.057C306.959 922.711 307.958 923.539 309.958 923.539C312.139 923.539 315.955 922.252 321.407 919.678C327.041 917.105 333.675 913.153 341.308 907.822C349.123 902.492 359.391 894.955 372.113 885.213C385.017 875.287 396.285 866.923 405.917 860.122C407.553 861.408 408.371 862.971 408.371 864.809C408.371 866.647 407.553 868.301 405.917 869.772C400.101 875.47 392.741 882.639 383.836 891.279C374.93 899.734 361.3 911.131 342.944 925.469C324.77 939.807 312.048 946.975 304.778 946.975C290.784 946.975 283.787 939.439 283.787 924.366C283.787 918.667 285.968 912.693 290.33 906.444L302.052 890.176C303.142 888.521 303.688 887.602 303.688 887.419C303.688 887.051 303.142 887.327 302.052 888.246C270.429 914.899 250.256 930.524 241.532 935.119C240.078 936.038 238.261 936.498 236.08 936.498C230.082 936.498 227.084 933.741 227.084 928.226C227.084 926.388 227.538 924.733 228.447 923.263C238.988 907.822 247.075 897.437 252.709 892.106L257.344 887.419C257.707 887.051 257.889 886.683 257.889 886.316C257.889 885.948 257.707 885.764 257.344 885.764C256.98 885.764 256.435 886.132 255.708 886.867L226.538 910.028C209.636 923.447 200.368 930.616 198.732 931.535C197.278 932.27 195.915 932.638 194.643 932.638C193.371 932.638 191.371 931.902 188.645 930.432C185.919 928.777 184.556 926.939 184.556 924.917C184.556 924.366 184.829 923.631 185.374 922.711C203.185 902.859 216.179 886.499 224.357 873.632C227.811 868.118 230.809 863.247 233.354 859.019C236.08 854.607 238.17 851.482 239.624 849.644C241.259 847.806 242.986 846.887 244.803 846.887C246.621 846.887 248.62 847.99 250.801 850.195C253.163 852.217 254.345 854.331 254.345 856.537C254.345 858.743 253.618 861.041 252.164 863.43C245.985 874.643 241.169 881.904 237.715 885.213C237.17 885.764 236.898 886.316 236.898 886.867C236.898 887.235 237.079 887.419 237.443 887.419L238.261 887.143L274.791 861.5C284.06 855.067 289.603 851.85 291.42 851.85C293.237 851.85 295.146 852.493 297.145 853.78C299.326 854.883 300.416 856.17 300.416 857.64C300.416 859.111 299.962 860.581 299.053 862.052L281.333 886.591C278.971 889.532 277.789 891.187 277.789 891.554C277.789 891.922 277.88 892.106 278.062 892.106L279.425 891.279C302.143 875.654 317.5 864.809 325.497 858.743C333.675 852.677 338.582 848.817 340.218 847.162C342.762 845.324 344.852 844.405 346.488 844.405C348.305 844.405 349.486 844.589 350.032 844.957L356.029 849.644C357.847 850.563 358.755 851.758 358.755 853.228C358.755 854.699 358.392 855.894 357.665 856.813C346.942 868.577 338.309 877.952 331.767 884.937C325.406 891.922 320.771 897.069 317.863 900.378C313.138 906.076 310.23 910.671 309.14 914.164C307.686 916.737 306.959 919.035 306.959 921.057ZM433.064 913.612C460.143 898.907 489.949 879.331 522.48 854.883C524.116 856.17 524.934 857.732 524.934 859.57C524.934 861.408 524.025 863.155 522.208 864.809C520.39 866.463 517.755 868.853 514.302 871.978C511.031 875.103 504.67 880.709 495.219 888.797C485.769 896.885 476.954 904.238 468.776 910.855C447.33 928.318 431.519 938.612 421.341 941.737C418.07 942.656 414.526 943.115 410.71 943.115C404.53 943.115 401.441 938.244 401.441 928.502C401.441 926.48 402.259 923.447 403.894 919.403C405.712 915.359 406.711 913.061 406.893 912.51C407.256 911.774 407.529 911.223 407.711 910.855C407.893 910.488 408.074 910.212 408.256 910.028C408.438 909.66 408.529 909.293 408.529 908.925C408.529 908.558 407.983 908.374 406.893 908.374C405.984 908.374 402.986 910.855 397.897 915.818C392.808 920.598 388.537 924.458 385.084 927.399C381.813 930.34 377.996 933.097 373.634 935.671C369.454 938.244 366.001 939.531 363.275 939.531C356.005 939.531 352.371 936.13 352.371 929.329C352.371 925.285 353.734 920.322 356.46 914.44C362.821 900.837 372.362 887.235 385.084 873.632C397.806 860.03 406.893 853.137 412.345 852.953C414.344 852.953 416.162 853.688 417.797 855.159C419.433 856.629 420.251 858.283 420.251 860.122C420.251 861.96 418.434 864.717 414.799 868.393C411.164 872.07 406.53 876.849 400.896 882.731C395.443 888.429 391.536 893.209 389.173 897.069C386.992 900.929 385.902 903.503 385.902 904.789C385.902 906.076 386.629 906.719 388.083 906.719C389.537 906.719 392.172 905.525 395.988 903.135C406.348 895.966 418.161 887.143 431.428 876.665C444.877 866.188 453.51 858.559 457.326 853.78C458.235 850.471 460.961 848.817 465.505 848.817C474.228 848.817 478.59 850.379 478.59 853.504C478.59 854.791 474.319 859.57 465.777 867.842C440.152 892.657 427.339 908.006 427.339 913.888C427.339 914.807 427.702 915.267 428.429 915.267C429.338 915.267 430.883 914.715 433.064 913.612ZM585.807 852.953C585.626 859.57 581.537 866.096 573.54 872.529C565.725 878.963 556.184 882.18 544.916 882.18C540.19 882.18 537.828 880.801 537.828 878.044C537.828 876.941 538.646 876.114 540.281 875.562C551.186 869.129 558.092 863.89 561 859.846C561.363 859.111 561.545 858.283 561.545 857.364C561.545 856.445 561.091 855.986 560.182 855.986C544.734 858.192 530.013 866.739 516.019 881.628C502.025 896.517 495.028 908.098 495.028 916.37C495.028 920.23 496.482 922.16 499.389 922.16C512.838 922.16 527.014 918.208 541.917 910.304C556.82 902.4 578.992 887.878 608.434 866.739C610.433 865.268 613.432 863.063 617.43 860.122C621.611 857.181 624.064 855.434 624.791 854.883C626.427 856.17 627.245 857.732 627.245 859.57C627.245 861.408 626.427 863.063 624.791 864.533C615.704 873.724 603.891 884.018 589.351 895.415C574.994 906.811 558.455 917.657 539.736 927.95C521.017 938.06 505.75 943.115 493.937 943.115C479.943 943.115 472.946 935.579 472.946 920.506C472.946 910.028 476.399 899.826 483.305 889.9C490.212 879.79 498.662 871.334 508.658 864.533C518.654 857.732 529.104 852.309 540.009 848.265C550.913 844.038 559.637 841.924 566.179 841.924C572.904 841.924 577.72 842.843 580.628 844.681C583.536 846.519 585.081 848.357 585.262 850.195L585.807 852.953ZM641.654 913.888C641.654 914.807 642.018 915.267 642.745 915.267C643.472 915.267 644.926 914.715 647.107 913.612C674.186 898.907 703.992 879.331 736.523 854.883C738.159 856.17 738.977 857.732 738.977 859.57C738.977 861.408 738.068 863.155 736.251 864.809C734.433 866.463 731.798 868.853 728.345 871.978C725.074 875.103 718.713 880.709 709.262 888.797C699.812 896.885 690.997 904.238 682.819 910.855C661.373 928.318 645.562 938.612 635.384 941.737C632.113 942.656 628.569 943.115 624.752 943.115C618.573 943.115 615.484 938.244 615.484 928.502C615.484 925.193 617.483 919.77 621.481 912.234C625.479 904.514 627.479 898.907 627.479 895.415C627.479 895.047 627.206 894.863 626.661 894.863C626.116 894.863 624.752 895.69 622.572 897.345C597.31 917.197 581.952 930.983 576.5 938.704C575.41 940.358 573.956 941.185 572.138 941.185C568.14 941.185 565.596 939.255 564.505 935.395C564.505 929.88 572.138 915.91 587.405 893.485C602.853 871.059 620.936 847.53 641.654 822.899C662.373 798.083 679.275 780.621 692.36 770.511C696.177 766.834 705.082 764.996 719.076 764.996C721.257 765.547 722.348 766.467 722.348 767.753C722.348 769.04 721.712 770.327 720.439 771.613C668.098 822.715 634.839 858.1 620.663 877.768C619.936 878.503 618.937 879.882 617.665 881.904C616.574 883.742 616.029 884.937 616.029 885.488L616.301 885.764C617.028 885.764 622.753 881.72 633.476 873.632C644.199 865.36 652.195 859.478 657.466 855.986C659.102 854.331 662.555 853.504 667.825 853.504C672.369 854.056 674.641 855.526 674.641 857.916C674.641 858.651 674.459 859.294 674.095 859.846C660.646 879.147 652.559 891.462 649.833 896.793C644.381 905.433 641.654 911.131 641.654 913.888ZM698.4 831.722C698.582 821.979 703.852 811.318 714.212 799.738C724.753 788.157 738.656 778.139 755.921 769.683C773.369 761.228 790.634 757 807.718 757C818.077 757 827.255 758.379 835.251 761.136C843.43 763.709 849.7 766.926 854.062 770.786C858.605 774.646 862.331 779.058 865.239 784.021C869.782 792.109 872.054 800.289 872.054 808.561C872.054 822.347 862.967 837.88 844.793 855.159C826.8 872.254 802.356 889.441 771.46 906.719C767.098 909.293 764.918 911.131 764.918 912.234C764.918 912.785 767.916 913.061 773.914 913.061C780.093 913.061 788.18 914.072 798.176 916.094C808.354 918.116 818.895 922.16 829.799 928.226C840.704 934.292 849.609 942.012 856.515 951.387C857.06 951.938 857.333 952.49 857.333 953.041C857.333 953.593 856.97 953.869 856.243 953.869C855.697 953.869 850.518 952.766 840.704 950.56C831.071 948.538 817.895 946.424 801.175 944.218C784.455 942.196 768.643 941.185 753.74 941.185C739.019 941.185 722.117 943.391 703.035 947.803C702.489 947.986 701.672 948.078 700.581 948.078C687.496 939.255 680.953 932.362 680.953 927.399C680.953 921.7 689.949 917.932 707.942 916.094C709.941 916.094 718.574 911.958 733.84 903.686C749.288 895.415 766.19 885.488 784.546 873.908C803.083 862.144 819.803 848.817 834.706 833.928C849.609 819.038 857.06 806.171 857.06 795.326C857.06 786.319 847.882 781.815 829.527 781.815C822.984 781.815 814.896 782.918 805.264 785.124C795.814 787.33 786.999 790.087 778.821 793.396C770.642 796.705 761.101 801.943 750.197 809.112C739.474 816.097 729.296 824.461 719.664 834.203C714.757 839.35 712.303 843.394 712.303 846.335C712.303 848.357 713.757 849.368 716.665 849.368C723.571 849.184 734.93 845.6 750.742 838.615C766.735 831.446 779.184 822.715 788.09 812.421C791.361 808.377 793.542 806.355 794.632 806.355C795.723 807.09 796.268 807.826 796.268 808.561C796.268 820.325 787.635 833.008 770.37 846.611C753.104 860.213 738.202 867.015 725.661 867.015C723.481 867.015 720.573 866.188 716.938 864.533C713.303 862.695 710.304 860.673 707.942 858.467C705.579 856.261 703.398 852.861 701.399 848.265C699.4 843.486 698.4 837.972 698.4 831.722ZM886.04 918.024C892.401 918.024 898.217 914.164 903.487 906.444C908.94 898.539 912.756 890.635 914.937 882.731C917.118 874.643 918.209 868.21 918.209 863.43C918.209 862.144 917.209 861.5 915.21 861.5C913.392 861.5 911.211 862.511 908.667 864.533L872.955 892.382C870.411 893.852 867.503 894.587 864.231 894.587C860.96 894.587 859.324 893.393 859.324 891.003C859.324 889.349 859.506 888.246 859.87 887.694C860.415 887.143 861.778 886.224 863.959 884.937C877.408 875.562 895.763 860.305 919.026 839.166C921.752 835.49 924.206 833.652 926.387 833.652C928.568 833.652 932.203 834.387 937.291 835.858C942.38 837.144 944.925 838.707 944.925 840.545C944.925 851.574 943.925 861.592 941.926 870.599C939.927 879.606 937.837 886.499 935.656 891.279C933.657 895.874 932.657 898.356 932.657 898.723C932.657 899.091 932.839 899.275 933.202 899.275C933.566 899.275 934.293 898.999 935.383 898.448C949.014 891.462 966.37 880.066 987.452 864.257L993.99 859.294C995.629 860.581 996.449 862.144 996.449 863.982C996.449 865.82 995.629 867.474 993.99 868.945C993.634 868.945 988.903 872.805 979.819 880.525C970.914 888.246 960.918 896.701 949.832 905.892C938.927 914.899 927.205 923.171 914.665 930.708C902.124 938.244 892.401 942.012 885.495 942.012C868.411 942.012 859.87 931.627 859.87 910.855C859.87 909.201 860.506 907.73 861.778 906.444C863.232 904.973 865.049 904.238 867.23 904.238C867.23 905.157 867.684 906.627 868.593 908.649C869.684 910.488 870.774 912.05 871.864 913.337C875.136 916.462 879.861 918.024 886.04 918.024ZM997.17 926.572L999.353 908.925C999.353 908.374 999.175 908.098 998.81 908.098C998.622 908.098 998.168 908.466 997.447 909.201C995.086 911.774 992.083 914.991 988.449 918.851C984.814 922.528 978.544 927.583 969.638 934.016C960.915 940.266 953.827 943.391 948.375 943.391C947.466 943.207 946.375 942.84 945.103 942.288C943.649 941.92 941.832 940.45 939.651 937.876C937.47 935.303 936.38 931.627 936.38 926.847C936.38 922.068 940.015 914.807 947.284 905.065C954.372 895.139 962.914 885.488 972.91 876.114C982.906 866.555 993.99 858.283 1006.17 851.298C1018.52 844.313 1029.25 840.821 1038.34 840.821C1041.79 841.005 1044.51 843.486 1046.52 848.265C1048.33 846.427 1049.96 845.508 1051.43 845.508C1052.88 845.508 1054.61 846.611 1056.6 848.817C1057.69 849.001 1058.78 849.644 1059.87 850.747C1060.97 851.666 1061.51 853.045 1061.51 854.883C1061.51 856.721 1060.24 858.743 1057.69 860.949C1053.88 865.728 1049.42 871.151 1044.33 877.217C1039.25 883.283 1035.61 887.694 1033.43 890.452C1031.25 893.025 1028.97 895.966 1026.61 899.275C1022.61 904.973 1020.43 909.568 1020.08 913.061C1038.61 904.054 1067.78 884.661 1107.58 854.883C1109.22 856.17 1110.04 857.732 1110.04 859.57C1110.04 861.408 1109.31 862.971 1107.85 864.257C1106.4 865.544 1104.59 867.107 1102.4 868.945C1100.4 870.783 1096.31 874.367 1090.13 879.698C1083.95 885.029 1077.96 890.176 1072.14 895.139C1066.51 899.918 1059.96 905.341 1052.51 911.407C1045.24 917.289 1038.7 922.344 1032.89 926.572C1018.89 936.682 1010.17 941.737 1006.71 941.737C1003.26 941.737 1000.81 940.634 999.353 938.428C997.901 936.222 997.17 932.27 997.17 926.572ZM969.366 914.991C971.547 914.991 978.18 910.488 989.268 901.481C1000.54 892.473 1011.17 883.466 1021.16 874.459L1036.43 860.949C1037.15 860.213 1037.52 859.754 1037.52 859.57C1037.52 859.203 1037.24 859.019 1036.7 859.019C1029.79 859.019 1020.8 863.063 1009.71 871.151C998.622 879.055 988.992 887.51 980.815 896.517C972.819 905.341 968.821 911.315 968.821 914.44C968.821 914.807 969.002 914.991 969.366 914.991ZM1158.19 849.093C1166.73 850.012 1171 851.942 1171 854.883C1171 856.17 1170.28 857.64 1168.83 859.294C1143.2 888.154 1113.75 924.917 1080.49 969.585C1070.86 982.82 1061.05 995.319 1051.05 1007.08C1041.05 1018.85 1031.7 1027.39 1022.98 1032.73C1014.25 1038.24 1005.16 1041 995.718 1041C990.987 1041 986.808 1039.71 983.173 1037.13C979.538 1034.57 977.721 1031.07 977.721 1026.66C977.721 1016.36 982.628 1005.71 992.439 994.676C1002.26 983.647 1013.25 974.64 1025.43 967.655C1037.61 960.854 1048.15 956.902 1057.06 955.799L1062.77 956.626C1064.59 956.442 1071.23 949.365 1082.68 935.395C1094.31 921.425 1100.12 914.072 1100.12 913.337C1100.31 912.418 1100.22 911.958 1099.85 911.958L1094.67 916.094C1081.04 928.961 1070.41 935.395 1062.77 935.395C1057.87 935.395 1055.42 931.902 1055.42 924.917C1055.42 915.543 1062.96 900.745 1078.05 880.525C1093.13 860.305 1104.21 850.195 1111.3 850.195C1111.85 850.195 1112.49 850.379 1113.21 850.747C1118.29 852.034 1120.84 853.872 1120.84 856.261C1120.84 857.181 1120.57 857.916 1120.02 858.467C1119.66 858.835 1117.84 860.581 1114.57 863.706C1111.48 866.831 1108.4 870.14 1105.31 873.632C1102.21 876.941 1098.95 880.617 1095.49 884.661C1087.68 893.852 1083.76 900.745 1083.76 905.341C1083.76 906.444 1084.32 906.995 1085.4 906.995C1086.68 906.995 1088.95 905.984 1092.22 903.962C1118.03 886.132 1138.2 869.129 1152.74 852.953C1154.01 850.379 1155.83 849.093 1158.19 849.093ZM991.896 1028.86C998.257 1026.84 1006.8 1020.5 1017.53 1009.84C1028.24 999.363 1037.42 989.437 1045.06 980.063L1056.5 965.725C1057.6 964.254 1058.14 963.335 1058.14 962.968C1058.14 962.6 1057.87 962.416 1057.32 962.416C1051.5 962.416 1043.24 966.92 1032.52 975.927C1021.62 984.934 1011.98 994.768 1003.62 1005.43C995.076 1016.09 990.809 1023.63 990.809 1028.04C990.809 1028.59 991.175 1028.86 991.896 1028.86Z" />
</svg>
